<svg width="40" height="40" viewBox="0 0 40 40" fill="none" xmlns="http://www.w3.org/2000/svg">
<path d="M34.71 19.2583V16.0151H31.4336V12.6651H28.1532L28.1528 9.45832H31.426V6.17799H28.1457V9.45832H24.8725V12.7387H15.1092V9.45832H11.8364V6.17799L8.55592 6.17786V9.45819H11.8287L11.8283 12.665L8.54799 12.6651V16.0151H5.27116V19.2583H1.99069V29.1H5.27103L5.27116 22.5387H8.54799V29.1H11.8196V32.3799H18.3799V29.1H11.8283V25.8191H28.1529V29.1H21.6009V32.3799H28.1616V29.1H31.4332L31.4331 22.5387H34.7095V29.1H37.9898V19.2583H34.71ZM15.098 19.2583H11.8328V16.0187H15.098V19.2583ZM28.1483 19.2583H24.8839V16.0187H28.1483V19.2583Z" fill="#548F93"/>
</svg>
